<?xml version="1.0" encoding="UTF-8" standalone="no"?>
<!DOCTYPE svg PUBLIC "-//W3C//DTD SVG 1.1//EN" "http://www.w3.org/Graphics/SVG/1.1/DTD/svg11.dtd">
<svg width="100%" height="100%" viewBox="0 0 48 48" version="1.1" xmlns="http://www.w3.org/2000/svg" xmlns:xlink="http://www.w3.org/1999/xlink" xml:space="preserve" xmlns:serif="http://www.serif.com/" style="fill-rule:evenodd;clip-rule:evenodd;stroke-linejoin:round;stroke-miterlimit:2;">
    <g transform="matrix(0.399045,0,0,0.399045,-12.174291,22.043232)">
        <path d="M35.767,23.856C32.261,23.856 30.509,22.201 30.509,18.89L30.509,1.361C30.509,-3.313 32.006,-7.013 35,-9.74C37.995,-12.466 41.951,-13.83 46.868,-13.83C51.786,-13.83 55.742,-12.466 58.736,-9.74C61.731,-7.013 63.228,-3.313 63.228,1.361L63.228,18.89C63.228,22.201 61.475,23.856 57.969,23.856C54.464,23.856 52.711,22.201 52.711,18.89L52.711,1.946C52.711,-0.343 52.2,-2.083 51.177,-3.276C50.155,-4.469 48.718,-5.066 46.868,-5.066C45.018,-5.066 43.582,-4.469 42.559,-3.276C41.537,-2.083 41.025,-0.343 41.025,1.946L41.025,18.89C41.025,22.201 39.273,23.856 35.767,23.856Z" style="fill:rgb(0,188,125);fill-rule:nonzero;"/>
        <path d="M83.385,23.856C78.516,23.856 74.706,23.053 71.955,21.446C69.204,19.839 67.257,17.624 66.113,14.8C64.968,11.976 64.396,8.738 64.396,5.086C64.396,-1.633 65.881,-6.465 68.851,-9.411C71.821,-12.357 75.814,-13.83 80.829,-13.83C83.848,-13.83 86.526,-13.318 88.863,-12.296C91.2,-11.273 93.026,-9.825 94.34,-7.95C95.655,-6.076 96.312,-3.8 96.312,-1.122C96.312,6.669 90.762,10.564 79.66,10.564L75.424,10.564C75.814,12.073 76.459,13.254 77.36,14.106C78.261,14.958 79.855,15.384 82.144,15.384C83.41,15.384 84.432,15.311 85.211,15.165C85.99,15.019 86.733,14.873 87.439,14.727C88.145,14.581 88.96,14.508 89.885,14.508C91.2,14.508 92.247,14.739 93.026,15.201C93.805,15.664 94.194,16.601 94.194,18.013C94.194,20.009 93.33,21.482 91.602,22.432C89.873,23.381 87.134,23.856 83.385,23.856ZM74.913,5.159C75.303,4.624 75.741,4.271 76.228,4.1C76.715,3.93 77.469,3.845 78.492,3.845C81.365,3.845 83.349,3.565 84.444,3.005C85.54,2.445 86.087,1.435 86.087,-0.026C86.087,-1.876 85.576,-3.301 84.554,-4.299C83.531,-5.297 82.241,-5.796 80.683,-5.796C78.881,-5.796 77.469,-5.041 76.447,-3.532C75.424,-2.022 74.913,0.875 74.913,5.159Z" style="fill:rgb(0,188,125);fill-rule:nonzero;"/>
        <path d="M112.234,23.856C110.189,23.856 108.582,23.272 107.413,22.103C106.245,20.935 105.174,18.963 104.2,16.187L96.896,-5.942C96.507,-7.257 96.312,-8.206 96.312,-8.79C96.312,-10.202 96.836,-11.432 97.882,-12.478C98.929,-13.525 100.232,-14.049 101.79,-14.049C103.007,-14.049 104.042,-13.757 104.894,-13.172C105.746,-12.588 106.318,-11.785 106.61,-10.762L113.548,12.317C115.447,9.249 116.798,6.425 117.602,3.845C118.405,1.264 118.807,-1.536 118.807,-4.554L118.661,-9.594C118.661,-10.86 119.172,-11.919 120.194,-12.771C121.217,-13.623 122.483,-14.049 123.992,-14.049C124.869,-14.049 125.648,-13.732 126.329,-13.099C127.011,-12.466 127.668,-11.371 128.301,-9.813C128.739,-8.742 129.238,-7.354 129.798,-5.65C130.358,-3.946 131.064,-1.669 131.916,1.179C132.768,4.027 133.827,7.74 135.093,12.317C136.797,10.418 138.136,8.068 139.11,5.269C140.084,2.469 140.449,-0.805 140.206,-4.554L139.914,-9.594C139.865,-10.86 140.388,-11.919 141.484,-12.771C142.579,-13.623 143.906,-14.049 145.464,-14.049C148.385,-14.049 150.065,-12.661 150.503,-9.886C150.601,-9.253 150.674,-8.522 150.723,-7.695C150.771,-6.867 150.796,-6.039 150.796,-5.212C150.796,-1.657 150.248,1.909 149.152,5.488C148.057,9.067 146.535,12.365 144.588,15.384C142.543,18.549 140.778,20.752 139.293,21.994C137.808,23.235 136.189,23.856 134.436,23.856C133.267,23.856 132.087,23.186 130.894,21.848C129.701,20.509 128.593,18.671 127.571,16.333C126.548,13.996 125.721,11.367 125.088,8.446C124.601,9.955 123.834,11.598 122.787,13.376C121.74,15.153 120.56,16.845 119.245,18.451C117.93,20.058 116.652,21.361 115.411,22.359C114.169,23.357 113.11,23.856 112.234,23.856Z" style="fill:rgb(0,188,125);fill-rule:nonzero;"/>
    </g>
</svg>
