<?xml version="1.0" encoding="UTF-8" standalone="no"?><!DOCTYPE svg PUBLIC "-//W3C//DTD SVG 1.1//EN" "http://www.w3.org/Graphics/SVG/1.1/DTD/svg11.dtd"><svg width="100%" height="100%" viewBox="0 0 12 12" version="1.1" xmlns="http://www.w3.org/2000/svg" xmlns:xlink="http://www.w3.org/1999/xlink" xml:space="preserve" xmlns:serif="http://www.serif.com/" style="fill-rule:evenodd;clip-rule:evenodd;stroke-linejoin:round;stroke-miterlimit:2;"><path d="M2.932,10.56c-0.893,0 -1.34,-0.422 -1.34,-1.265l0,-4.465c0,-1.191 0.381,-2.133 1.144,-2.828c0.763,-0.695 1.771,-1.042 3.023,-1.042c1.253,0 2.26,0.347 3.023,1.042c0.763,0.695 1.144,1.637 1.144,2.828l0,4.465c0,0.843 -0.447,1.265 -1.34,1.265c-0.893,0 -1.34,-0.422 -1.34,-1.265l0,-4.316c0,-0.583 -0.13,-1.026 -0.391,-1.33c-0.26,-0.304 -0.626,-0.456 -1.098,-0.456c-0.471,-0 -0.837,0.152 -1.098,0.456c-0.26,0.304 -0.391,0.747 -0.391,1.33l0,4.316c0,0.843 -0.447,1.265 -1.34,1.265Z" style="fill:#00bc7d;fill-rule:nonzero;"/></svg>